<svg width="512" height="512" viewBox="0 0 512 512" fill="none" xmlns="http://www.w3.org/2000/svg">
<path d="M217.965 323.703H136.906C130.012 323.703 124.406 329.313 124.406 336.203V405.5C124.406 412.395 130.012 418 136.906 418H173.5C177.64 418 181 414.64 181 410.5C181 406.36 177.64 403 173.5 403H139.406V392.398H215.465V403H209C204.86 403 201.5 406.36 201.5 410.5C201.5 414.64 204.86 418 209 418H217.965C224.855 418 230.465 412.395 230.465 405.5V336.203C230.465 329.313 224.855 323.703 217.965 323.703ZM155.355 377.398H139.406V338.703H155.356L155.355 377.398ZM184.512 377.398H170.359V338.703H184.512V377.398ZM215.465 377.398H199.512V338.703H215.465V377.398ZM217.965 101.715H136.906C130.012 101.715 124.406 107.325 124.406 114.215V183.512C124.406 190.406 130.012 196.012 136.906 196.012H217.965C224.855 196.012 230.465 190.406 230.465 183.512V114.215C230.465 107.325 224.855 101.715 217.965 101.715ZM170.355 116.715H184.512V155.406H170.355V116.715ZM139.406 116.715H155.356V155.406H139.406V116.715ZM215.465 181.012H139.406V170.406H215.465V181.012ZM215.465 155.406H199.512V116.715H215.465V155.406ZM217.965 212.71H136.906C130.012 212.71 124.406 218.316 124.406 225.21V294.508C124.406 301.398 130.012 307.008 136.906 307.008H217.965C224.855 307.008 230.465 301.398 230.465 294.508V225.21C230.465 218.315 224.855 212.71 217.965 212.71ZM170.355 227.71H184.512V266.402H170.355V227.71ZM139.406 227.71H155.356V266.402H139.406V227.71ZM215.465 292.008H139.406V281.402H215.465V292.008ZM215.465 266.402H199.512V227.711H215.465V266.402ZM326.727 166.043H304.727C297.832 166.043 292.227 171.648 292.227 178.543V213.5C292.227 220.395 297.832 226 304.727 226H326.727C333.617 226 339.227 220.395 339.227 213.5V178.543C339.227 171.648 333.617 166.043 326.727 166.043ZM324.227 211H307.227V181.043H324.227V211ZM387.727 166.043H365.727C358.832 166.043 353.227 171.648 353.227 178.543V213.5C353.227 220.395 358.832 226 365.727 226H387.727C394.617 226 400.227 220.395 400.227 213.5V178.543C400.227 171.648 394.617 166.043 387.727 166.043ZM385.227 211H368.227V181.043H385.227V211ZM326.727 236H304.727C297.832 236 292.227 241.605 292.227 248.5V283.457C292.227 290.352 297.832 295.957 304.727 295.957H326.727C333.617 295.957 339.227 290.352 339.227 283.457V248.5C339.227 241.605 333.617 236 326.727 236ZM324.227 280.957H307.227V251H324.227V280.957ZM387.727 236H365.727C358.832 236 353.227 241.605 353.227 248.5V283.457C353.227 290.352 358.832 295.957 365.727 295.957H387.727C394.617 295.957 400.227 290.352 400.227 283.457V248.5C400.227 241.605 394.617 236 387.727 236ZM385.227 280.957H368.227V251H385.227V280.957ZM326.727 305.957H304.727C297.832 305.957 292.227 311.567 292.227 318.457V353.414C292.227 360.309 297.832 365.914 304.727 365.914H326.727C333.617 365.914 339.227 360.309 339.227 353.414V318.457C339.227 311.567 333.617 305.957 326.727 305.957ZM324.227 350.914H307.227V320.957H324.227V350.914ZM387.727 305.957H365.727C358.832 305.957 353.227 311.567 353.227 318.457V353.414C353.227 360.309 358.832 365.914 365.727 365.914H387.727C394.617 365.914 400.227 360.309 400.227 353.414V318.457C400.227 311.567 394.617 305.957 387.727 305.957ZM385.227 350.914H368.227V320.957H385.227V350.914ZM326.727 375.914H304.727C297.832 375.914 292.227 381.524 292.227 388.414V423.375C292.227 430.265 297.832 435.875 304.727 435.875H326.727C333.617 435.875 339.227 430.265 339.227 423.375V388.415C339.227 381.523 333.617 375.915 326.727 375.915V375.914ZM324.227 420.875H307.227V390.915H324.227V420.875ZM387.727 375.914H365.727C358.832 375.914 353.227 381.524 353.227 388.414V423.375C353.227 430.265 358.832 435.875 365.727 435.875H387.727C394.617 435.875 400.227 430.265 400.227 423.375V388.415C400.227 381.523 394.617 375.915 387.727 375.915V375.914ZM385.227 420.875H368.227V390.915H385.227V420.875Z" fill="black"/>
<path d="M504.5 460H460.5V432.34C480.922 428.773 496.5 410.926 496.5 389.5C496.5 365.516 476.984 346 453 346C447.059 346 441.39 347.2 436.227 349.367V324.5C436.227 320.36 432.867 317 428.727 317C424.586 317 421.227 320.36 421.227 324.5V359.836C413.961 367.613 409.5 378.043 409.5 389.5C409.5 400.957 413.96 411.387 421.227 419.164V459.891H275.324V223.5C275.324 221.511 274.534 219.603 273.127 218.197C271.721 216.79 269.813 216 267.824 216C265.835 216 263.927 216.79 262.521 218.197C261.114 219.603 260.324 221.511 260.324 223.5V459.89H94.547V417.164C100.762 409.641 104.5 400 104.5 389.5C104.5 379 100.762 369.36 94.547 361.836V84.996H260.324V188C260.324 189.989 261.114 191.897 262.521 193.303C263.927 194.71 265.835 195.5 267.824 195.5C269.813 195.5 271.721 194.71 273.127 193.303C274.534 191.897 275.324 189.989 275.324 188V152.996H421.227V288.5C421.227 290.489 422.017 292.397 423.424 293.803C424.83 295.21 426.738 296 428.727 296C430.716 296 432.624 295.21 434.03 293.803C435.437 292.397 436.227 290.489 436.227 288.5V152.996H438.727C445.617 152.996 451.227 147.391 451.227 140.496V118.5C451.227 111.605 445.617 106 438.727 106H275.324V84.996H281.594C288.488 84.996 294.094 79.391 294.094 72.496V50.5C294.094 43.605 288.488 38 281.594 38H73.274C66.383 38 60.774 43.605 60.774 50.5V72.496C60.774 79.391 66.383 84.996 73.274 84.996H79.547V350.16C73.7495 347.416 67.4143 345.995 61 346C37.016 346 17.5 365.516 17.5 389.5C17.5 410.93 33.078 428.773 53.5 432.34V460H7.5C3.36 460 0 463.36 0 467.5C0 471.64 3.36 475 7.5 475H504.5C508.64 475 512 471.64 512 467.5C512 463.36 508.64 460 504.5 460ZM436.227 121V137.996H275.324V121H436.227ZM75.773 69.996V53H279.093V69.996H75.773ZM79.547 460H68.5V432.34C72.3224 431.673 76.0379 430.496 79.547 428.84V460ZM68.5 416.992V407.5C68.5 403.36 65.14 400 61 400C56.86 400 53.5 403.36 53.5 407.5V416.992C41.414 413.692 32.5 402.617 32.5 389.5C32.5 373.785 45.285 361 61 361C76.715 361 89.5 373.785 89.5 389.5C89.5 402.617 80.586 413.691 68.5 416.992ZM445.5 460H436.227V429.633C439.207 430.88 442.317 431.788 445.5 432.34V460ZM453 400C448.86 400 445.5 403.36 445.5 407.5V416.992C433.414 413.692 424.5 402.617 424.5 389.5C424.5 373.785 437.285 361 453 361C468.715 361 481.5 373.785 481.5 389.5C481.5 402.617 472.586 413.691 460.5 416.992V407.5C460.5 403.36 457.14 400 453 400Z" fill="black"/>
</svg>
